<svg width="392" height="423" viewBox="0 0 392 423" fill="none" xmlns="http://www.w3.org/2000/svg">
<g clip-path="url(#clip0_84_3329)">
<path d="M368.753 321.799H74.0987C68.6323 321.793 64.2024 317.362 64.196 311.894V71.9175C64.2024 66.4498 68.6323 62.019 74.0987 62.0127H368.753C374.219 62.019 378.649 66.4499 378.655 71.9175V311.894C378.649 317.362 374.219 321.793 368.753 321.799Z" fill="#E6E6E6"/>
<path d="M340.124 315.118H80.7799C75.3134 315.112 70.8835 310.681 70.8772 305.213V78.6038C70.8835 73.1361 75.3134 68.7053 80.7799 68.699H362.073C367.54 68.7053 371.97 73.1361 371.976 78.6038V283.259C371.956 300.846 357.707 315.098 340.124 315.118Z" fill="white"/>
<path d="M268.856 119.939H150.428C149.017 119.939 147.874 118.796 147.874 117.385C147.874 115.974 149.017 114.83 150.428 114.83H268.856C270.267 114.83 271.41 115.974 271.41 117.385C271.41 118.796 270.267 119.939 268.856 119.939Z" fill="#6C63FF"/>
<path d="M328.807 147.194H150.428C149.017 147.194 147.874 146.05 147.874 144.639C147.874 143.228 149.017 142.085 150.428 142.085H328.807C330.217 142.085 331.361 143.228 331.361 144.639C331.361 146.05 330.217 147.194 328.807 147.194Z" fill="#E6E6E6"/>
<path d="M328.807 174.448H150.428C149.017 174.448 147.874 173.304 147.874 171.894C147.874 170.483 149.017 169.339 150.428 169.339H328.807C330.217 169.339 331.361 170.483 331.361 171.894C331.361 173.304 330.217 174.448 328.807 174.448Z" fill="#E6E6E6"/>
<path d="M328.807 201.703H150.428C149.017 201.703 147.874 200.559 147.874 199.148C147.874 197.737 149.017 196.594 150.428 196.594H328.807C330.217 196.594 331.361 197.737 331.361 199.148C331.361 200.559 330.217 201.703 328.807 201.703Z" fill="#E6E6E6"/>
<path d="M328.807 228.957H150.428C149.017 228.957 147.874 227.813 147.874 226.403C147.874 224.992 149.017 223.848 150.428 223.848H328.807C330.217 223.848 331.361 224.992 331.361 226.403C331.361 227.813 330.217 228.957 328.807 228.957Z" fill="#E6E6E6"/>
<path d="M320.785 272.389C313.643 272.389 307.854 266.598 307.854 259.454C307.854 252.31 313.643 246.519 320.785 246.519C327.927 246.519 333.717 252.31 333.717 259.454C333.717 266.598 327.927 272.389 320.785 272.389Z" fill="#6C63FF"/>
<path d="M328.061 258.84L324.394 253.487C324.056 252.991 323.38 252.863 322.884 253.201C322.387 253.539 322.259 254.216 322.597 254.712L322.601 254.717L324.972 258.178H315.683C314.978 258.176 314.405 258.746 314.403 259.45C314.401 260.155 314.971 260.728 315.675 260.73H325.088L322.601 264.362C322.263 264.859 322.393 265.535 322.889 265.872C323.383 266.208 324.055 266.082 324.394 265.591L328.061 260.239C328.303 259.804 328.303 259.274 328.061 258.84Z" fill="white"/>
<path d="M390.713 26.6231H52.1398C51.4138 26.6076 50.8378 26.0063 50.8533 25.2802C50.8684 24.5758 51.4357 24.0085 52.1398 23.9934H390.713C391.439 24.0089 392.015 24.6102 392 25.3364C391.985 26.0407 391.417 26.6081 390.713 26.6231Z" fill="#CACACA"/>
<path d="M94.5104 285.829C96.4681 284.191 96.7274 281.275 95.0895 279.317C94.9148 279.108 94.7221 278.915 94.5135 278.74L91.7097 254.508L82.8074 256.57L87.7547 279.54C86.24 281.612 86.6915 284.52 88.7631 286.035C90.4965 287.303 92.8724 287.217 94.5104 285.829Z" fill="#FFB6B6"/>
<path d="M93.5906 258.46L83.2842 264.891C83.2842 264.891 82.6568 268.66 81.9481 259.187C81.8741 258.199 82.5639 256.476 82.488 255.461C82.4025 254.316 79.1238 253.795 79.0375 252.637C78.976 251.812 79.9239 251.079 79.8627 250.257C79.7699 249.011 79.6778 247.772 79.5874 246.553C79.5117 245.534 78.3826 244.887 78.3098 243.903C78.2364 242.911 79.2194 241.581 79.1501 240.641C78.6306 233.589 80.4271 215.849 80.4271 215.488C80.2883 214.582 79.9102 213.73 79.3319 213.02L79.882 211.374L79.5182 208.286C79.0402 204.229 79.893 200.126 81.9481 196.595L84.5656 194.881L96.643 215.2C91.5607 232.782 88.2431 239.688 93.5906 258.46Z" fill="#6C63FF"/>
<path d="M85.5483 409.957H91.7829L94.7503 385.904H85.5483V409.957Z" fill="#FFB6B6"/>
<path d="M83.514 405.686L93.4746 405.092V409.36L102.944 415.902C104.156 416.738 104.46 418.399 103.623 419.611C103.126 420.332 102.306 420.762 101.43 420.762H89.5712L87.5272 416.54L86.7292 420.762H82.2581L83.514 405.686Z" fill="#2F2E41"/>
<path d="M120.57 409.957H126.804L129.771 385.904H120.57V409.957Z" fill="#FFB6B6"/>
<path d="M118.535 405.686L128.495 405.092V409.36L137.965 415.902C139.177 416.738 139.481 418.399 138.644 419.611C138.146 420.332 137.326 420.762 136.45 420.762H124.592L122.548 416.54L121.75 420.762H117.279L118.535 405.686Z" fill="#2F2E41"/>
<path d="M82.9023 389.215H82.9265L84.1256 331.932C82.5496 328.892 82.5999 325.264 84.2597 322.268L84.4314 321.958L83.9863 319.894C83.4146 317.243 83.677 314.479 84.7373 311.983L85.8559 275.501C81.8596 249.596 100.905 232.702 100.905 232.702H129.434L135.559 253.751C139.609 293.209 138.874 349.833 132.448 387.085L132.624 387.173C133.314 387.558 133.58 388.418 133.228 389.126C132.931 389.986 132.179 390.507 131.548 390.289L116.481 389.765C115.791 389.38 115.525 388.521 115.877 387.813C116.174 386.952 116.926 386.432 117.557 386.649L118.581 387.168L117.524 385.015C116.227 382.375 116.478 379.238 118.177 376.837L117.992 372.099C116.39 370.223 115.858 367.658 116.581 365.3L117.597 361.982L116.396 331.255L116.639 324.362L116.139 316.542L113.83 281.366L105.088 324.622L96.1586 389.65C96.5957 390.045 96.7875 390.643 96.661 391.218C96.4714 391.99 95.7725 392.527 94.9785 392.511H82.8587C81.9469 392.51 81.2084 391.77 81.2092 390.858C81.2094 390.71 81.2294 390.563 81.2687 390.42C81.479 389.696 82.1482 389.202 82.9023 389.215Z" fill="#2F2E41"/>
<path d="M152.233 276.413C153.844 274.432 153.544 271.521 151.564 269.909C151.353 269.738 151.127 269.585 150.889 269.453L143.533 246.195L135.185 249.911L144.406 271.522C143.312 273.845 144.308 276.614 146.63 277.708C148.572 278.623 150.889 278.087 152.233 276.413Z" fill="#FFB6B6"/>
<path d="M121.964 202.473C121.964 202.473 130.353 232.169 129.974 235.169C129.19 241.355 90.6366 260.371 87.7694 251.909L88.1288 249.127C86.6804 246.23 95.5176 234.73 95.9466 233.226C96.4917 231.303 94.0237 224.988 94.0237 224.988C94.0237 224.988 95.7296 219.223 95.4571 215.654C95.1795 212.085 94.3568 212.635 91.3387 210.434C88.3207 208.238 83.3796 198.081 83.3796 198.081C83.3796 198.081 85.5751 188.197 85.5751 186.274C85.5751 184.351 94.594 181.074 95.6892 179.979C96.166 179.343 96.5674 178.653 96.8853 177.924C97.1074 177.48 96.9661 176.45 97.2033 175.941C97.3547 175.607 97.8847 175.814 98.0412 175.471C98.1926 175.138 98.0613 174.754 98.2127 174.426C98.4096 173.992 98.884 173.613 99.0707 173.205C99.9287 171.327 100.661 169.797 100.888 169.797C101.433 169.797 119.006 172.271 119.006 172.271C119.963 173.75 121.065 175.13 122.297 176.39C124.22 178.308 133.219 182.978 133.219 182.978L121.964 202.473Z" fill="#6C63FF"/>
<path d="M145.693 252.433C144.321 253.806 137.528 260.11 137.25 258.459C136.977 256.814 136.829 256.617 135.729 256.072C134.629 255.522 134.629 255.249 134.356 253.326C134.084 251.402 131.611 249.479 131.888 248.656C132.161 247.833 131.906 248.88 131.906 248.052C131.906 247.229 131.084 244.211 129.983 243.66C128.888 243.11 127.238 242.565 128.066 241.192C128.888 239.819 120.318 198.627 120.318 198.627L128.005 183.528L133.218 182.978C133.218 182.978 134.803 183.884 135.299 192.058C135.324 192.472 135.775 193.232 135.795 193.684C135.811 194.06 135.395 194.122 135.407 194.525C135.409 194.611 135.412 194.698 135.414 194.785C135.424 195.186 136.506 195.481 136.522 195.867C136.551 196.558 136.976 200.965 137.022 201.613C137.074 202.343 137.135 203.047 137.205 203.723C137.964 211.089 138.235 211.712 138.705 214.063C139.433 217.702 142.449 238.956 142.449 238.956C142.449 238.956 144.645 239.501 144.645 241.424C144.645 243.347 147.066 247.213 145.971 249.409C144.871 251.61 147.066 251.06 145.693 252.433Z" fill="#6C63FF"/>
<path d="M108.329 169.233C115.52 169.233 121.35 163.403 121.35 156.21C121.35 149.018 115.52 143.187 108.329 143.187C101.139 143.187 95.3091 149.018 95.3091 156.21C95.3091 163.403 101.139 169.233 108.329 169.233Z" fill="#FFB8B8"/>
<path d="M80.2715 183.58C77.5162 182.603 74.7609 181.625 72.0056 180.644C72.4805 179.847 73.0853 179.135 73.795 178.538C76.4184 176.347 80.0393 175.951 83.37 175.212C86.7059 174.473 90.3269 172.957 91.5462 169.768C92.813 166.453 90.9761 162.873 89.9099 159.495C88.3351 154.755 88.5263 149.606 90.4483 144.997C92.4384 140.383 96.4642 136.959 101.338 135.737C106.162 134.665 111.615 136.412 114.581 140.362C118.536 139.175 122.755 141.128 124.409 144.913C125.173 146.651 125.055 148.65 124.093 150.287C123.063 151.845 120.862 152.642 119.205 151.776L120.166 149.337C117.194 150.345 115.262 155.72 115.663 158.835C116.059 161.944 117.875 164.668 119.717 167.208C121.559 169.747 123.523 172.313 124.314 175.349C125.454 179.715 123.913 184.488 121.063 187.988C118.213 191.488 114.196 193.864 110.036 195.612C106.923 196.921 103.687 197.919 100.377 198.589C100.968 197.439 101.554 196.288 102.145 195.137L95.1302 199.381C93.7737 199.513 92.4065 199.593 91.0395 199.619C87.0596 199.688 83.0006 199.27 79.3584 197.681C75.7111 196.087 72.5071 193.199 71.1875 189.445C70.7644 188.231 70.5642 186.951 70.5964 185.665C73.8214 184.968 77.0464 184.273 80.2715 183.58Z" fill="#2F2E41"/>
<path d="M206.096 421.754H181.948L181.844 421.565C181.535 421.005 181.237 420.412 180.958 419.802C178.471 414.476 177.42 408.384 176.492 403.009L175.793 398.958C175.559 397.596 176.472 396.302 177.833 396.068C178.499 395.953 179.184 396.113 179.73 396.511C183.4 399.182 187.071 401.85 190.744 404.516C192.135 405.528 193.723 406.699 195.244 407.965C195.391 407.252 195.544 406.537 195.698 405.832C195.991 404.481 197.324 403.624 198.675 403.918C199.336 404.062 199.911 404.467 200.268 405.042L203.093 409.582C205.154 412.898 206.973 416.165 206.602 419.689C206.604 419.732 206.601 419.775 206.593 419.817C206.519 420.396 206.381 420.965 206.183 421.514L206.096 421.754Z" fill="#F0F0F0"/>
<path d="M230.334 422.276L0.861906 422.5C0.383407 422.498 -0.00247662 422.108 1.19694e-05 421.629C0.00250055 421.154 0.386936 420.769 0.861906 420.767L230.334 420.543C230.812 420.546 231.198 420.936 231.196 421.414C231.193 421.889 230.809 422.274 230.334 422.276Z" fill="#CACACA"/>
<path d="M65.4057 13.084C68.8042 13.084 71.5592 10.267 71.5592 6.792C71.5592 3.31702 68.8042 0.5 65.4057 0.5C62.0072 0.5 59.2522 3.31702 59.2522 6.792C59.2522 10.267 62.0072 13.084 65.4057 13.084Z" fill="#3F3D56"/>
<path d="M86.6633 13.084C90.0618 13.084 92.8168 10.267 92.8168 6.792C92.8168 3.31702 90.0618 0.5 86.6633 0.5C83.2648 0.5 80.5098 3.31702 80.5098 6.792C80.5098 10.267 83.2648 13.084 86.6633 13.084Z" fill="#3F3D56"/>
<path d="M107.921 13.084C111.319 13.084 114.074 10.267 114.074 6.792C114.074 3.31702 111.319 0.5 107.921 0.5C104.522 0.5 101.767 3.31702 101.767 6.792C101.767 10.267 104.522 13.084 107.921 13.084Z" fill="#3F3D56"/>
<path d="M132.16 11.7649C131.971 11.7649 131.782 11.6917 131.64 11.546L127.488 7.30068C127.211 7.0178 127.211 6.56576 127.488 6.28288L131.64 2.03789C131.922 1.75075 132.383 1.74612 132.669 2.02652C132.956 2.30763 132.961 2.76855 132.68 3.05569L129.026 6.79178L132.68 10.5282C132.961 10.8154 132.956 11.2763 132.669 11.5574C132.527 11.696 132.344 11.7649 132.16 11.7649Z" fill="#3F3D56"/>
<path d="M139.137 11.765C138.953 11.765 138.77 11.696 138.628 11.5574C138.341 11.2763 138.336 10.8158 138.617 10.5283L142.271 6.79182L138.617 3.05574C138.336 2.76859 138.341 2.30767 138.628 2.02657C138.915 1.74511 139.376 1.75044 139.657 2.03794L143.809 6.28292C144.086 6.5658 144.086 7.01785 143.809 7.30073L139.657 11.5461C139.515 11.6918 139.326 11.765 139.137 11.765Z" fill="#3F3D56"/>
<path d="M356.35 1.22852H348.629C347.749 1.22852 347.036 1.94176 347.036 2.82243V10.5518C347.036 11.4325 347.749 12.1457 348.629 12.1457H356.35C357.23 12.1457 357.95 11.4325 357.95 10.5518V2.82243C357.95 1.94176 357.23 1.22852 356.35 1.22852Z" fill="#3F3D56"/>
<path d="M337.431 1.22852H329.71C328.83 1.22852 328.117 1.94176 328.117 2.82243V10.5518C328.117 11.4325 328.83 12.1457 329.71 12.1457H337.431C338.311 12.1457 339.032 11.4325 339.032 10.5518V2.82243C339.032 1.94176 338.311 1.22852 337.431 1.22852Z" fill="#3F3D56"/>
<path d="M374.177 1.59229H366.457C365.576 1.59229 364.863 2.30553 364.863 3.1862V10.9156C364.863 11.7962 365.576 12.5095 366.457 12.5095H374.177C375.058 12.5095 375.778 11.7962 375.778 10.9156V3.1862C375.778 2.30553 375.058 1.59229 374.177 1.59229Z" fill="#3F3D56"/>
<path d="M257.809 4.53271H196.097C195.02 4.53271 194.154 5.4061 194.154 6.47601C194.154 7.54591 195.02 8.41925 196.097 8.41925H257.809C258.879 8.41925 259.752 7.54587 259.752 6.47601C259.752 5.40614 258.879 4.53271 257.809 4.53271Z" fill="#3F3D56"/>
</g>
<defs>
<clipPath id="clip0_84_3329">
<rect width="392" height="422" fill="white" transform="translate(0 0.5)"/>
</clipPath>
</defs>
</svg>
