<svg width="96" height="14" viewBox="0 0 96 14" fill="none" xmlns="http://www.w3.org/2000/svg">
<path d="M1.90341 13L0.505682 1.36364H3.19318L3.78409 9.44886H3.88068L7.34091 1.36364H9.64205L10.4261 9.46591H10.5284L13.7898 1.36364H16.4773L11.2159 13H8.81818L7.875 5.39205H7.78409L4.30114 13H1.90341ZM24.2287 5.125C24.1984 4.84848 24.134 4.60417 24.0355 4.39205C23.9408 4.17614 23.8101 3.99432 23.6435 3.84659C23.4768 3.69508 23.2741 3.57955 23.0355 3.5C22.7969 3.42045 22.5204 3.38068 22.206 3.38068C21.6113 3.38068 21.0545 3.52841 20.5355 3.82386C20.0204 4.11932 19.581 4.54924 19.2173 5.11364C18.8537 5.67424 18.6056 6.35985 18.473 7.17045C18.3366 7.98106 18.3366 8.67045 18.473 9.23864C18.6132 9.80682 18.8764 10.2405 19.2628 10.5398C19.6529 10.8352 20.1548 10.983 20.7685 10.983C21.3253 10.983 21.8253 10.8845 22.2685 10.6875C22.7116 10.4867 23.0734 10.2045 23.3537 9.84091C23.6378 9.47727 23.8196 9.04735 23.8991 8.55114L24.3878 8.625H21.3935L21.7003 6.77273H26.5696L26.3196 8.23864C26.1567 9.26136 25.7988 10.1402 25.2457 10.875C24.6927 11.6098 24.0033 12.1742 23.1776 12.5682C22.3556 12.9621 21.4541 13.1591 20.473 13.1591C19.3821 13.1591 18.4635 12.9186 17.7173 12.4375C16.9749 11.9527 16.4465 11.2652 16.1321 10.375C15.8215 9.48106 15.7666 8.42045 15.9673 7.19318C16.1226 6.25 16.3991 5.40909 16.7969 4.67045C17.1984 3.92803 17.6889 3.29924 18.2685 2.78409C18.848 2.26894 19.4901 1.87689 20.1946 1.60795C20.9029 1.33901 21.6397 1.20455 22.4048 1.20455C23.0639 1.20455 23.6605 1.30114 24.1946 1.49432C24.7325 1.68371 25.1927 1.95265 25.5753 2.30114C25.9616 2.64962 26.2533 3.06439 26.4503 3.54545C26.651 4.02273 26.7438 4.54924 26.7287 5.125H24.2287ZM28.0256 3.39205L28.3665 1.36364H37.9233L37.5824 3.39205H34.0199L32.429 13H29.9972L31.5881 3.39205H28.0256ZM37.5653 13L39.4972 1.36364H44.0881C44.9669 1.36364 45.6884 1.5322 46.2528 1.86932C46.821 2.20265 47.2188 2.66667 47.446 3.26136C47.6771 3.85227 47.7301 4.53409 47.6051 5.30682C47.4763 6.08333 47.196 6.76705 46.7642 7.35795C46.3362 7.94508 45.7794 8.40341 45.0938 8.73295C44.4081 9.0625 43.6165 9.22727 42.7188 9.22727H39.7926L40.1165 7.25568H42.6449C43.1222 7.25568 43.5294 7.17424 43.8665 7.01136C44.2074 6.8447 44.4782 6.61553 44.679 6.32386C44.8797 6.02841 45.0104 5.68939 45.071 5.30682C45.1354 4.91667 45.1146 4.57765 45.0085 4.28977C44.9025 4.00189 44.7074 3.77841 44.4233 3.61932C44.143 3.45644 43.7661 3.375 43.2926 3.375H41.6335L40.0256 13H37.5653ZM47.8793 13L49.3338 4.27273H51.7543L50.2997 13H47.8793ZM50.794 3.13636C50.4342 3.13636 50.1368 3.01705 49.902 2.77841C49.6709 2.53598 49.5762 2.24811 49.6179 1.91477C49.6596 1.57386 49.8224 1.28598 50.1065 1.05114C50.3906 0.812499 50.7126 0.693181 51.0724 0.693181C51.4323 0.693181 51.7259 0.812499 51.9531 1.05114C52.1804 1.28598 52.2751 1.57386 52.2372 1.91477C52.1993 2.24811 52.0384 2.53598 51.7543 2.77841C51.474 3.01705 51.1539 3.13636 50.794 3.13636ZM61.8295 4.27273L57.3239 13H54.5966L53 4.27273H55.4659L56.2386 10.517H56.3295L59.1761 4.27273H61.8295ZM65.2869 13.1705C64.3968 13.1705 63.66 12.9811 63.0767 12.6023C62.4934 12.2197 62.0824 11.6894 61.8438 11.0114C61.6089 10.3295 61.5653 9.53598 61.7131 8.63068C61.857 7.73674 62.1563 6.95455 62.6108 6.28409C63.0653 5.61364 63.643 5.0928 64.3438 4.72159C65.0445 4.34659 65.8343 4.15909 66.7131 4.15909C67.5994 4.15909 68.3343 4.35038 68.9176 4.73295C69.5009 5.11174 69.9119 5.64205 70.1506 6.32386C70.3892 7.00568 70.4347 7.79924 70.2869 8.70455C70.1392 9.5947 69.8362 10.375 69.3778 11.0455C68.9195 11.7159 68.3419 12.2386 67.6449 12.6136C66.9479 12.9848 66.1619 13.1705 65.2869 13.1705ZM65.5256 11.2955C65.9347 11.2955 66.2964 11.1799 66.6108 10.9489C66.929 10.714 67.1922 10.3958 67.4006 9.99432C67.6127 9.58902 67.7604 9.13068 67.8438 8.61932C67.9271 8.11553 67.9328 7.66856 67.8608 7.27841C67.7888 6.88447 67.6373 6.57386 67.4062 6.34659C67.179 6.11932 66.8665 6.00568 66.4688 6.00568C66.0597 6.00568 65.696 6.12311 65.3778 6.35795C65.0597 6.58902 64.7964 6.9072 64.5881 7.3125C64.3797 7.7178 64.2339 8.17803 64.1506 8.69318C64.071 9.19318 64.0653 9.64015 64.1335 10.0341C64.2017 10.4242 64.3513 10.733 64.5824 10.9602C64.8134 11.1837 65.1278 11.2955 65.5256 11.2955ZM77.2415 4.27273L76.9403 6.09091H71.679L71.9858 4.27273H77.2415ZM73.5199 2.18182H75.9403L74.5881 10.3182C74.5502 10.5417 74.5559 10.7159 74.6051 10.8409C74.6544 10.9621 74.7358 11.0473 74.8494 11.0966C74.9669 11.1458 75.107 11.1705 75.2699 11.1705C75.3835 11.1705 75.4991 11.161 75.6165 11.142C75.7339 11.1193 75.8229 11.1023 75.8835 11.0909L75.9744 12.892C75.8381 12.9337 75.6544 12.9792 75.4233 13.0284C75.196 13.0777 74.9271 13.108 74.6165 13.1193C74.0256 13.142 73.5256 13.0644 73.1165 12.8864C72.7074 12.7045 72.4138 12.4261 72.2358 12.0511C72.0578 11.6761 72.0199 11.2045 72.1222 10.6364L73.5199 2.18182ZM77.5966 13L79.5284 1.36364H81.9886L80.3977 10.9716H85.3864L85.0455 13H77.5966ZM90.5838 13.1705C89.6937 13.1705 88.9569 12.9811 88.3736 12.6023C87.7902 12.2197 87.3793 11.6894 87.1406 11.0114C86.9058 10.3295 86.8622 9.53598 87.0099 8.63068C87.1539 7.73674 87.4531 6.95455 87.9077 6.28409C88.3622 5.61364 88.9399 5.0928 89.6406 4.72159C90.3414 4.34659 91.1312 4.15909 92.0099 4.15909C92.8963 4.15909 93.6312 4.35038 94.2145 4.73295C94.7978 5.11174 95.2088 5.64205 95.4474 6.32386C95.6861 7.00568 95.7315 7.79924 95.5838 8.70455C95.4361 9.5947 95.133 10.375 94.6747 11.0455C94.2164 11.7159 93.6387 12.2386 92.9418 12.6136C92.2448 12.9848 91.4588 13.1705 90.5838 13.1705ZM90.8224 11.2955C91.2315 11.2955 91.5933 11.1799 91.9077 10.9489C92.2259 10.714 92.4891 10.3958 92.6974 9.99432C92.9096 9.58902 93.0573 9.13068 93.1406 8.61932C93.224 8.11553 93.2296 7.66856 93.1577 7.27841C93.0857 6.88447 92.9342 6.57386 92.7031 6.34659C92.4759 6.11932 92.1634 6.00568 91.7656 6.00568C91.3565 6.00568 90.9929 6.12311 90.6747 6.35795C90.3565 6.58902 90.0933 6.9072 89.8849 7.3125C89.6766 7.7178 89.5308 8.17803 89.4474 8.69318C89.3679 9.19318 89.3622 9.64015 89.4304 10.0341C89.4986 10.4242 89.6482 10.733 89.8793 10.9602C90.1103 11.1837 90.4247 11.2955 90.8224 11.2955Z" fill="black"/>
</svg>
